<svg width="28" height="28" viewBox="0 0 28 28" fill="none" xmlns="http://www.w3.org/2000/svg">
<rect x="28" y="28" width="28" height="28" rx="14" transform="rotate(-180 28 28)" fill="white"/>
<path fill-rule="evenodd" clip-rule="evenodd" d="M20.6 24L7.4 24C6.49826 24 5.63346 23.6418 4.99584 23.0042C4.35821 22.3665 4 21.5017 4 20.6L4 7.4C4 6.49827 4.35822 5.63346 4.99584 4.99584C5.63346 4.35821 6.49827 4 7.4 4L20.6 4C21.5017 4 22.3665 4.35822 23.0042 4.99584C23.6418 5.63346 24 6.49827 24 7.4L24 20.6C24 21.5017 23.6418 22.3665 23.0042 23.0042C22.3665 23.6418 21.5017 24 20.6 24ZM19 21C18.7348 21 18.4804 20.8946 18.2929 20.7071C18.1054 20.5196 18 20.2652 18 20L18 12C18 11.7348 18.1054 11.4804 18.2929 11.2929C18.4804 11.1054 18.7348 11 19 11C19.2652 11 19.5196 11.1054 19.7071 11.2929C19.8946 11.4804 20 11.7348 20 12L20 20C20 20.2652 19.8946 20.5196 19.7071 20.7071C19.5196 20.8946 19.2652 21 19 21ZM14 21C13.7348 21 13.4804 20.8946 13.2929 20.7071C13.1054 20.5196 13 20.2652 13 20L13 14C13 13.7348 13.1054 13.4804 13.2929 13.2929C13.4804 13.1054 13.7348 13 14 13C14.2652 13 14.5196 13.1054 14.7071 13.2929C14.8946 13.4804 15 13.7348 15 14L15 20C15 20.2652 14.8946 20.5196 14.7071 20.7071C14.5196 20.8946 14.2652 21 14 21ZM8 20C8 20.2652 8.10536 20.5196 8.29289 20.7071C8.48043 20.8946 8.73478 21 9 21C9.26522 21 9.51957 20.8946 9.70711 20.7071C9.89464 20.5196 10 20.2652 10 20L10 10C10 9.73478 9.89465 9.48043 9.70711 9.29289C9.51957 9.10536 9.26522 9 9 9C8.73478 9 8.48043 9.10536 8.29289 9.29289C8.10536 9.48043 8 9.73478 8 10L8 20Z" fill="#4F606D"/>
</svg>
