<svg width="16" height="16" viewBox="0 0 16 16" fill="none" xmlns="http://www.w3.org/2000/svg">
<path d="M3.51543 15.7148H0.245898V5.20312H3.51543V15.7148ZM1.86309 3.79688C0.843554 3.79688 -0.000195503 2.91797 -0.000195503 1.86328C-0.000195503 0.84375 0.843554 0 1.86309 0C2.91777 0 3.76152 0.84375 3.76152 1.86328C3.76152 2.91797 2.91777 3.79688 1.86309 3.79688ZM15.7146 15.7148H12.4803V10.6172C12.4803 9.38672 12.4451 7.83984 10.7576 7.83984C9.07012 7.83984 8.82402 9.14062 8.82402 10.5117V15.7148H5.55449V5.20312H8.6834V6.64453H8.71855C9.17559 5.83594 10.2303 4.95703 11.8123 4.95703C15.117 4.95703 15.7498 7.13672 15.7498 9.94922V15.7148H15.7146Z" fill="white"/>
</svg>
