<svg width="18" height="13" viewBox="0 0 18 13" fill="none" xmlns="http://www.w3.org/2000/svg">
<path d="M9.00391 0C9.00391 0 12.7819 0.00038152 15.3008 0.1875C15.6523 0.230241 16.4199 0.233325 17.1045 0.969727C17.6439 1.53057 17.8203 2.80469 17.8203 2.80469C17.824 2.83518 18 4.31598 18 5.7959V7.19824C18 8.69415 17.8203 10.1895 17.8203 10.1895C17.82 10.1915 17.6433 11.4629 17.1045 12.0234C16.4199 12.7599 15.6523 12.7633 15.3008 12.8066C12.7819 12.9938 9 13 9 13C9 13 4.31988 12.9565 2.87988 12.8145C2.47937 12.7376 1.57964 12.7599 0.894531 12.0234C0.355858 11.4628 0.179978 10.1916 0.179688 10.1895C0.179688 10.1895 1.72489e-05 8.69415 0 7.19824V5.7959C0 4.31598 0.176038 2.83518 0.179688 2.80469C0.179688 2.80469 0.355223 1.53066 0.894531 0.969727C1.57966 0.233289 2.34709 0.230242 2.69922 0.1875C5.21809 0.000381555 8.99609 0 8.99609 0H9.00391ZM7.1416 8.89746L12.0039 6.30957L7.14062 3.7041L7.1416 8.89746Z" fill="white"/>
</svg>
