<svg version="1.2" xmlns="http://www.w3.org/2000/svg" viewBox="0 0 1552 270" width="1552" height="270">
	<title>Havells_Logo</title>
	<style>
		.s0 { fill: #ed1c24 } 
		.s1 { fill: #f25746 } 
		.s2 { fill: #ba151b } 
	</style>
	<g id="g12">
		<g id="g5436">
			<path id="path604" class="s0" d="m329.9 43h58v62.3h54.8v-62.3h57.9v183.9h-57.9v-71.3h-54.8v71.3h-58zm253.1 0h58.8l63.1 183.8h-57.6l-7-24.4h-57.3l-6.9 24.4h-56.2zm10.7 121.2h36.5l-18.6-65.8zm100.4-121.1h58.5l31.1 122.2 32.1-122.2h58.2l-61.2 183.8h-58.2zm203.6 0h144v43h-86v26.5h72.4v42.9h-72.4v28.9h89.4v42.9h-147.4zm177 0h57.9v141.1h79.4v42.9h-137.3zm163.5 0h58v141.1h79.3v42.9h-137.3zm253.9 53.3c-1.4-10.5-9.4-15.8-23.7-15.8q-17.1 0-17.9 9.9c-0.2 4.1 1.7 7.5 5.7 10.3 4 2.6 9.3 4.9 16 6.7 6.7 1.8 13.2 3.5 19.4 4.9 20.7 5.1 35.9 12 45.8 20.6 9.8 8.7 14.6 20.8 14.4 36 0 15.1-3.8 27.1-11.5 36.7q-11.6 14.2-30.3 20.3c-12.4 4.2-25.8 6.2-40.3 6.2-21.5 0-39.8-5.8-54.6-17.3-15-11.4-23-26.5-23.9-44.8h55.6c1.3 7.3 4.6 12.4 10.2 15.3 5.4 2.9 11.1 4.4 17 4.4 14.2-0.7 21.7-4.9 22.5-12.5 0.7-5.3-1.8-9.3-7.7-12.1-5.8-2.8-14.7-5.7-26.8-8.8-15.1-3.8-27.2-7.9-36.2-11.9-9-4.2-16.3-10.3-22.1-18.2-5.9-8.1-8.7-18.8-8.5-32.1 0.2-16.4 7.3-29.8 20.9-40.2 13.7-10.4 32.3-15.6 56-15.6 12.6 0 24.1 1.9 34.6 5.5 10.5 3.7 19.5 9.8 26.8 18.6 7.3 8.8 12 20.1 13.7 34 0 0-55.1 0-55.1-0.1z"/>
			<g>
				<path id="path608" class="s1" d="m54 81.4c-0.9 0-1.7 0-2.5-0.2-5.3-0.8-9.5-3.9-11.4-8.9-1-2.3-1.4-4.7-1.4-7.4 0-3.7 1-7.6 1.8-10.4 4.3-15.5 9.4-26.5 15.2-33.4 1.1-1.4 2.3-2.6 3.5-3.5l0.4-0.3c0 0 0.2-0.2 0.4-0.2q3.1-2.4 6.3-2.4c4.9 0 10.1 4.4 14.6 12.5 4.8 8.3 8.8 20.6 11.8 35.3 1.1 5.1 1.9 10.1 2.7 15.6q-3.2 0.2-6.4 0.4c-7.2 0.5-13.7 1-20.2 1.6-3.1 0.2-6.3 0.5-9.4 0.9h-0.8c-1.6 0.2-3.2 0.4-4.6 0.4z"/>
				<path id="path612" class="s2" d="m62.3 254c-2.1 0-4.2-0.8-6.3-2.6l-0.2-0.1h-0.1l-0.1-0.3c0 0-0.2 0-0.3-0.1-1-0.9-2.2-2.1-3.3-3.6-5.8-7.4-10.6-19.1-14.6-35.6-0.8-3.6-1.7-7.6-1.7-11.3 0-2.8 0.4-5.4 1.3-8 2-5.4 5.8-9.1 11-10.6 1.5-0.4 2.9-0.5 4.5-0.5 1.1 0 2 0 3.2 0.1 3.2 0.3 6.5 0.7 10 0.9 6.7 0.6 13.9 1.2 21.2 1.6 2.5 0.2 5.2 0.4 7.7 0.6-1.1 6.8-2.3 13-3.6 19.1-3.5 15.3-8 28-13 36.8-4.9 8.6-10.6 13.6-15.5 13.6"/>
				<path id="path616" class="s0" d="m277.1 134.4c-0.1-31-10.2-61.7-28.1-86.4-14.6-20-33.4-35.3-55.3-45-1.8-0.7-7.5-2.3-8.9-2-5.5 1.1-9.3 6.1-10.5 12.8-0.3 1.5-0.4 3.3-0.4 5-0.3 3.3-0.4 6.8-0.5 10.6q0 1 0 2.8c-0.2 4.3-0.4 10.8-0.8 13.3-3.9 21.9-25.9 35.9-45.1 36.7-13.2 0.5-25.9 1.2-38.1 2-6.8 0.5-13.5 1-20 1.6-3.2 0.2-6.3 0.5-9.4 0.9h-0.7q-2.6 0.4-5.2 0.4c-1.2 0-2.4 0-3.3-0.3-7.3-1-13.1-5.6-15.9-12.5-1.2-3-1.9-6.2-1.9-9.7 0-4.5 1.1-8.7 2-11.9 1.7-6 4-13.3 7.3-20.6-11 11.3-20.3 24.4-27.2 38.6-9.5 19.4-14.7 41-15.1 62.4v2.8c0 37.5 13.9 73 38.5 99.7-3.3-7.8-5.5-16-6.9-22.6-1-3.9-1.9-8.2-1.9-12.6 0-3.4 0.5-6.8 1.7-9.9 2.7-7.4 8-12.4 15.2-14.3q2.7-0.8 5.9-0.8c1.2 0 2.4 0 3.9 0.3 3.2 0.3 6.3 0.7 9.8 0.9 6.6 0.6 13.8 1.2 21.1 1.6 12.7 1 26.1 1.6 39.9 2.2 10.6 0.4 21.6 4.7 30.3 11.9 9.1 7.6 14.8 17.7 16.3 28.3 0.2 2.3 0.6 8.6 0.8 13.3 0 1.6 0 2.8 0.1 3.6 0.3 5.3 0.7 10.1 0.9 14.5 0.2 1.8 0.3 3.7 0.4 5.3 1.2 6.1 4.8 10.7 9.8 11.9q2.6 0.6 5.2 0c1.3-0.6 2.8-1.2 4.1-1.8 21.6-10.1 40.2-25.5 54.5-45.6 17.8-24.8 27.5-55.5 27.5-86.3v-0.8z"/>
			</g>
		</g>
	</g>
</svg>